<svg xmlns="http://www.w3.org/2000/svg" viewBox="0 0 35 40">
  <path fill="#FFC531" d="M30.4 0L23 7.2C21.1 6.4 19 6 16.8 6h-.7a16 16 0 00-6.2 1.3L2.6 0 .2 21.8c0 2.1.5 4.4 1.3 6.3l.1.2c2.3 5.9 9 9.8 14.9 9.8 6.9 0 12.8-3.9 15.1-9.9.7-1.9 1.2-3.9 1.2-6L30.4 0z"/>
  <path d="M32.8 22.1L30.4 0 23 7.2C21.1 6.4 19 6 16.8 6h-.7a16 16 0 00-6.2 1.3L2.6 0 .2 21.8c0 2.1.5 4.4 1.3 6.3l.1.2c2.3 5.9 9 9.8 14.9 9.8 6.9 0 12.8-3.9 15.1-9.9.8-1.9 1.2-4 1.2-6.1zm-2.9 5.1c0 .1-.1.1-.1.2-2 5.1-7.2 8.6-13.3 8.6-5.2 0-11-3.4-13.1-8.5l-.1-.2c-.7-1.6-1.1-3.6-1.1-5.4L4.1 4.3l4.4 4.3c.4.4.9.6 1.4.6.3 0 .5-.1.8-.2 1.7-.7 3.5-1.1 5.4-1.1h.7c1.9 0 3.8.4 5.4 1.1.3.1.5.2.8.2.5 0 1-.2 1.4-.6l4.4-4.3 2 17.9c0 1.8-.4 3.5-.9 5z"/>
  <path fill="none" stroke="#000" stroke-linecap="round" stroke-linejoin="round" stroke-miterlimit="10" stroke-width="1.32" d="M13.76 19.69c-.66-2.65-4.63-2.65-5.29 0M25.65 19.69c-.66-2.65-4.62-2.65-5.28 0"/>
</svg>