<svg width="35" height="40" viewBox="0 0 35 40" fill="none" 
  xmlns="http://www.w3.org/2000/svg">
  <mask id="path-2-inside-1" fill="white">
    <path d="M31.6134 28.1189C29.2677 34.0633 23.3776 38 16.482 38C10.5374 38 3.92677 34.1873 1.58102 28.2429L1.49874 28.039C0.754463 26.1745 0.222549 23.8923 0.222549 21.7586L2.61342 0L9.93437 7.22426C11.84 6.41074 13.9358 5.96013 16.1352 5.96013H16.8286C19.0282 5.96013 21.1239 6.41074 23.0295 7.22426L30.3505 0L32.7774 22.0875C32.7774 24.2212 32.3678 26.2584 31.6229 28.123"/>
  </mask>
  <path d="M31.6134 28.1189C29.2677 34.0633 23.3776 38 16.482 38C10.5374 38 3.92677 34.1873 1.58102 28.2429L1.49874 28.039C0.754463 26.1745 0.222549 23.8923 0.222549 21.7586L2.61342 0L9.93437 7.22426C11.84 6.41074 13.9358 5.96013 16.1352 5.96013H16.8286C19.0282 5.96013 21.1239 6.41074 23.0295 7.22426L30.3505 0L32.7774 22.0875C32.7774 24.2212 32.3678 26.2584 31.6229 28.123" fill="#FFC531"/>
  <path d="M33.4578 28.8467C33.8597 27.8281 33.3598 26.6765 32.3412 26.2745C31.3226 25.8726 30.171 26.3725 29.769 27.3911L33.4578 28.8467ZM1.58102 28.2429L3.4254 27.5151C3.42352 27.5104 3.42163 27.5056 3.41971 27.5009L1.58102 28.2429ZM1.49874 28.039L-0.342776 28.7741L-0.339955 28.7811L1.49874 28.039ZM0.222549 21.7586L-1.74838 21.542C-1.75628 21.6139 -1.76024 21.6862 -1.76024 21.7586H0.222549ZM2.61342 0L4.00611 -1.41133C3.46497 -1.94532 2.66615 -2.12289 1.94976 -1.86842C1.23336 -1.61395 0.725535 -0.97227 0.642497 -0.216569L2.61342 0ZM9.93437 7.22426L8.54168 8.63559C9.11464 9.20098 9.97256 9.36387 10.7129 9.04782L9.93437 7.22426ZM23.0295 7.22426L22.251 9.04782C22.9913 9.36387 23.8492 9.20098 24.4222 8.63559L23.0295 7.22426ZM30.3505 0L32.3214 -0.216567C32.2383 -0.972268 31.7305 -1.61395 31.0141 -1.86842C30.2977 -2.12289 29.4989 -1.94532 28.9578 -1.41133L30.3505 0ZM32.7774 22.0875H34.7602C34.7602 22.0152 34.7563 21.9429 34.7484 21.871L32.7774 22.0875ZM29.7816 27.3874C29.3754 28.4043 29.8704 29.558 30.8874 29.9643C31.9043 30.3705 33.058 29.8754 33.4642 28.8585L29.7816 27.3874ZM29.769 27.3911C27.7406 32.5312 22.6151 36.0172 16.482 36.0172V39.9828C24.1401 39.9828 30.7947 35.5953 33.4578 28.8467L29.769 27.3911ZM16.482 36.0172C11.2377 36.0172 5.43262 32.6016 3.4254 27.5151L-0.263353 28.9708C2.42093 35.773 9.83699 39.9828 16.482 39.9828V36.0172ZM3.41971 27.5009L3.33743 27.297L-0.339955 28.7811L-0.257671 28.985L3.41971 27.5009ZM3.34024 27.304C2.67027 25.6256 2.20534 23.5938 2.20534 21.7586H-1.76024C-1.76024 24.1908 -1.16134 26.7234 -0.342762 28.7741L3.34024 27.304ZM2.19347 21.9751L4.58435 0.216569L0.642497 -0.216569L-1.74838 21.542L2.19347 21.9751ZM1.22073 1.41133L8.54168 8.63559L11.3271 5.81293L4.00611 -1.41133L1.22073 1.41133ZM10.7129 9.04782C12.3775 8.33717 14.2089 7.94292 16.1352 7.94292V3.97734C13.6627 3.97734 11.3024 4.48431 9.15587 5.4007L10.7129 9.04782ZM16.1352 7.94292H16.8286V3.97734H16.1352V7.94292ZM16.8286 7.94292C18.755 7.94292 20.5864 8.33717 22.251 9.04782L23.808 5.4007C21.6615 4.48431 19.3013 3.97734 16.8286 3.97734V7.94292ZM24.4222 8.63559L31.7431 1.41133L28.9578 -1.41133L21.6368 5.81293L24.4222 8.63559ZM28.3795 0.216567L30.8065 22.3041L34.7484 21.871L32.3214 -0.216567L28.3795 0.216567ZM30.7947 22.0875C30.7947 23.9656 30.4344 25.7534 29.7816 27.3874L33.4642 28.8585C34.3012 26.7634 34.7602 24.4768 34.7602 22.0875H30.7947Z" fill="black" mask="url(#path-2-inside-1)"/>
  <path d="M13.7576 19.6877C13.0967 17.044 9.13114 17.044 8.47021 19.6877" stroke="black" stroke-width="1.32186" stroke-miterlimit="10" stroke-linecap="round" stroke-linejoin="round"/>
  <path d="M25.6544 19.6877C24.9934 17.044 21.0279 17.044 20.3669 19.6877" stroke="black" stroke-width="1.32186" stroke-miterlimit="10" stroke-linecap="round" stroke-linejoin="round"/>
</svg>
