<?xml version="1.0" standalone="no"?>
<!DOCTYPE svg PUBLIC "-//W3C//DTD SVG 20010904//EN"
 "http://www.w3.org/TR/2001/REC-SVG-20010904/DTD/svg10.dtd">
<svg version="1.0" xmlns="http://www.w3.org/2000/svg"
 width="512.000000pt" height="512.000000pt" viewBox="0 0 512.000000 512.000000"
 preserveAspectRatio="xMidYMid meet">
<metadata>
Created by potrace 1.11, written by Peter Selinger 2001-2013
</metadata>
<g transform="translate(0.000000,512.000000) scale(0.100000,-0.100000)"
fill="#000000" stroke="none">
<path d="M843 4787 c0 -23 -14 -162 -18 -187 -2 -14 -7 -54 -10 -90 -4 -36 -8
-76 -10 -90 -6 -45 -15 -124 -20 -180 -3 -30 -10 -91 -15 -135 -5 -44 -12
-108 -15 -143 -4 -35 -8 -71 -10 -80 -1 -9 -6 -51 -10 -92 -4 -41 -9 -84 -11
-95 -2 -11 -7 -53 -10 -94 -3 -42 -7 -82 -9 -91 -2 -8 -6 -49 -10 -90 -4 -41
-8 -82 -10 -90 -2 -8 -6 -49 -9 -90 -4 -41 -9 -86 -11 -100 -4 -25 -10 -77
-20 -175 -3 -27 -7 -66 -9 -85 -3 -19 -7 -62 -11 -95 -3 -33 -8 -71 -10 -85
-2 -14 -6 -56 -10 -95 -3 -38 -7 -77 -10 -85 -2 -8 -6 -49 -10 -90 -3 -41 -10
-102 -14 -135 -9 -60 -6 -266 3 -314 3 -14 8 -42 11 -61 3 -19 8 -46 10 -60 3
-14 7 -35 9 -47 12 -63 60 -223 91 -310 168 -452 491 -802 950 -1028 170 -83
374 -153 530 -180 17 -2 40 -7 52 -9 42 -9 169 -19 260 -20 139 -3 362 19 458
45 22 6 53 13 69 16 46 7 231 71 319 110 104 46 256 134 359 208 102 74 305
274 380 375 243 326 383 748 373 1125 -2 66 -5 129 -8 140 -2 11 -8 56 -12
100 -4 44 -8 87 -10 95 -2 8 -6 44 -9 80 -4 36 -11 101 -16 145 -5 44 -12 107
-15 140 -3 33 -8 74 -10 90 -2 17 -7 57 -10 90 -3 33 -7 74 -10 90 -2 17 -7
57 -10 90 -3 33 -8 74 -10 90 -2 17 -6 62 -10 100 -4 39 -9 82 -11 96 -2 14
-6 52 -9 85 -3 32 -8 70 -10 84 -2 14 -7 57 -10 95 -3 39 -8 81 -10 95 -3 14
-7 54 -10 90 -4 36 -8 78 -11 94 -3 15 -7 49 -9 75 -2 25 -6 62 -9 81 -2 19
-7 71 -11 115 -4 44 -9 82 -10 85 -2 3 -6 43 -10 90 -4 47 -8 87 -10 90 -2 3
-6 45 -10 93 -13 159 35 189 -454 -292 l-434 -428 -126 43 c-114 39 -217 64
-386 92 -64 11 -504 9 -570 -3 -132 -22 -245 -51 -359 -89 l-128 -44 -133 132
c-551 546 -721 713 -731 718 -6 4 -11 2 -11 -5z"/>
</g>
</svg>
